<?xml version="1.0" encoding="utf-8"?>
<!-- Generator: Adobe Illustrator 18.1.1, SVG Export Plug-In . SVG Version: 6.00 Build 0)  -->
<svg version="1.1" id="Layer_1" xmlns="http://www.w3.org/2000/svg" xmlns:xlink="http://www.w3.org/1999/xlink" x="0px" y="0px"
	 viewBox="0 0 147.2 148.2" enable-background="new 0 0 147.2 148.2" xml:space="preserve">
<g>
	<path fill="none" d="M73.6,49.1c1.1,0,2.2,0.1,3.2,0.2v-0.8V34c-1.1-0.1-2.1-0.2-3.2-0.2c-1.1,0-2.1,0.1-3.2,0.2v15.3
		C71.5,49.2,72.5,49.1,73.6,49.1z"/>
	<path fill="none" d="M48.6,74.1c0-1.3,0.1-2.5,0.3-3.7h-0.4h-15c-0.1,1.2-0.2,2.5-0.2,3.7c0,1.2,0.1,2.5,0.2,3.7h15.4
		C48.7,76.6,48.6,75.4,48.6,74.1z"/>
	<path fill="none" d="M98.7,74.1c0,1.3-0.1,2.5-0.3,3.7h0.4h15c0.1-1.2,0.2-2.5,0.2-3.7c0-1.2-0.1-2.5-0.2-3.7H98.4
		C98.5,71.6,98.7,72.9,98.7,74.1z"/>
	<path fill="none" d="M73.6,99.2c-1.1,0-2.2-0.1-3.2-0.2v0.8v14.5c1.1,0.1,2.1,0.2,3.2,0.2c1.1,0,2.1-0.1,3.2-0.2V98.9
		C75.8,99.1,74.7,99.2,73.6,99.2z"/>
	<path fill="#9661AF" d="M70.4,28.2v-1.8C70.4,11.9,58.5,0,44,0H0v15.7v6.3V44c0,14.5,11.9,26.4,26.4,26.4h1.3
		C29.6,47.8,47.8,29.8,70.4,28.2z"/>
	<path fill="#9661AF" d="M48.9,70.4c1.6-11,10.4-19.7,21.5-21.1V34c-19.5,1.5-35.1,17-36.9,36.4h15H48.9z"/>
	<path fill="#5B8EDC" d="M27.7,77.8h-1.3C11.9,77.8,0,89.7,0,104.2v44h15.7h6.3H44c14.5,0,26.4-11.9,26.4-26.4V120
		C47.7,118.5,29.6,100.4,27.7,77.8z"/>
	<path fill="#5B8EDC" d="M70.4,98.9c-11.1-1.4-19.9-10.1-21.5-21.1H33.5c1.8,19.4,17.4,34.9,36.9,36.4V99.8V98.9z"/>
	<path fill="#FFEB66" d="M76.8,49.3c11.1,1.4,19.9,10.1,21.5,21.1h15.4C111.9,51,96.3,35.5,76.8,34v14.5V49.3z"/>
	<path fill="#FFEB66" d="M119.5,70.4h1.3c14.5,0,26.4-11.9,26.4-26.4V0h-15.7h-6.3h-22.1C88.7,0,76.8,11.9,76.8,26.4v1.8
		C99.5,29.8,117.7,47.8,119.5,70.4z"/>
	<path fill="#80D7D4" d="M120.8,77.8h-1.3c-1.8,22.6-20,40.6-42.7,42.2v1.8c0,14.5,11.9,26.4,26.4,26.4h44v-15.7v-6.3v-22.1
		C147.2,89.7,135.4,77.8,120.8,77.8z"/>
	<path fill="#80D7D4" d="M98.8,77.8h-0.4c-1.6,11-10.4,19.7-21.5,21.1v15.3c19.5-1.5,35.1-17,36.9-36.4H98.8z"/>
	<g>
		<path fill="#FFFFFF" d="M119.5,77.8c0.1-1.2,0.2-2.5,0.2-3.7c0-1.2-0.1-2.5-0.2-3.7c-1.8-22.6-20-40.6-42.7-42.2
			c-1.1-0.1-2.1-0.1-3.2-0.1c-1.1,0-2.1,0.1-3.2,0.1c-22.7,1.6-40.9,19.6-42.7,42.2c-0.1,1.2-0.2,2.5-0.2,3.7c0,1.2,0.1,2.5,0.2,3.7
			c1.8,22.6,20,40.6,42.7,42.2c1.1,0.1,2.1,0.1,3.2,0.1c1.1,0,2.1-0.1,3.2-0.1C99.5,118.5,117.7,100.4,119.5,77.8z M76.8,114.3
			c-1.1,0.1-2.1,0.2-3.2,0.2c-1.1,0-2.1-0.1-3.2-0.2c-19.5-1.5-35.1-17-36.9-36.4c-0.1-1.2-0.2-2.5-0.2-3.7c0-1.3,0.1-2.5,0.2-3.7
			C35.3,51,50.9,35.5,70.4,34c1.1-0.1,2.1-0.2,3.2-0.2c1.1,0,2.1,0.1,3.2,0.2c19.5,1.5,35.1,17,36.9,36.4c0.1,1.2,0.2,2.5,0.2,3.7
			c0,1.3-0.1,2.5-0.2,3.7C111.9,97.3,96.3,112.7,76.8,114.3z"/>
		<path fill="#FFFFFF" d="M98.4,70.4c-1.6-11-10.4-19.7-21.5-21.1c-1.1-0.1-2.1-0.2-3.2-0.2c-1.1,0-2.2,0.1-3.2,0.2
			c-11.1,1.4-19.9,10.1-21.5,21.1c-0.2,1.2-0.3,2.4-0.3,3.7c0,1.3,0.1,2.5,0.3,3.7c1.6,11,10.4,19.7,21.5,21.1
			c1.1,0.1,2.1,0.2,3.2,0.2c1.1,0,2.2-0.1,3.2-0.2c11.1-1.4,19.9-10.1,21.5-21.1c0.2-1.2,0.3-2.4,0.3-3.7
			C98.7,72.9,98.5,71.6,98.4,70.4z"/>
	</g>
	<g>
		<path fill="#FFFFFF" d="M119.5,77.8c0.1-1.2,0.2-2.5,0.2-3.7c0-1.2-0.1-2.5-0.2-3.7c-1.8-22.6-20-40.6-42.7-42.2
			c-1.1-0.1-2.1-0.1-3.2-0.1c-1.1,0-2.1,0.1-3.2,0.1c-22.7,1.6-40.9,19.6-42.7,42.2c-0.1,1.2-0.2,2.5-0.2,3.7c0,1.2,0.1,2.5,0.2,3.7
			c1.8,22.6,20,40.6,42.7,42.2c1.1,0.1,2.1,0.1,3.2,0.1c1.1,0,2.1-0.1,3.2-0.1C99.5,118.5,117.7,100.4,119.5,77.8z M76.8,114.3
			c-1.1,0.1-2.1,0.2-3.2,0.2c-1.1,0-2.1-0.1-3.2-0.2c-19.5-1.5-35.1-17-36.9-36.4c-0.1-1.2-0.2-2.5-0.2-3.7c0-1.3,0.1-2.5,0.2-3.7
			C35.3,51,50.9,35.5,70.4,34c1.1-0.1,2.1-0.2,3.2-0.2c1.1,0,2.1,0.1,3.2,0.2c19.5,1.5,35.1,17,36.9,36.4c0.1,1.2,0.2,2.5,0.2,3.7
			c0,1.3-0.1,2.5-0.2,3.7C111.9,97.3,96.3,112.7,76.8,114.3z"/>
		<path fill="#FFFFFF" d="M98.4,70.4c-1.6-11-10.4-19.7-21.5-21.1c-1.1-0.1-2.1-0.2-3.2-0.2c-1.1,0-2.2,0.1-3.2,0.2
			c-11.1,1.4-19.9,10.1-21.5,21.1c-0.2,1.2-0.3,2.4-0.3,3.7c0,1.3,0.1,2.5,0.3,3.7c1.6,11,10.4,19.7,21.5,21.1
			c1.1,0.1,2.1,0.2,3.2,0.2c1.1,0,2.2-0.1,3.2-0.2c11.1-1.4,19.9-10.1,21.5-21.1c0.2-1.2,0.3-2.4,0.3-3.7
			C98.7,72.9,98.5,71.6,98.4,70.4z"/>
	</g>
</g>
</svg>
