<?xml version="1.0" encoding="utf-8"?>
<!-- Generator: Adobe Illustrator 18.1.1, SVG Export Plug-In . SVG Version: 6.00 Build 0)  -->
<svg version="1.1" id="Layer_1" xmlns="http://www.w3.org/2000/svg" xmlns:xlink="http://www.w3.org/1999/xlink" x="0px" y="0px"
	 viewBox="0 0 202 110" enable-background="new 0 0 202 110" xml:space="preserve">
<g>
	<g>
		<path fill="#FFFFFF" d="M106.3,100.5V95h-0.1c-1.9,3.8-5.6,6.1-10.3,6.1c-7.3,0-11.7-5.6-11.7-11.6c0-6.1,4.5-11.6,11.7-11.6
			c5.4,0,9.2,3.3,10.3,6.2h0.1V69.6h1.2v31H106.3z M96,78.9c-5.8,0-10.5,4.3-10.5,10.5c0,5,3.5,10.5,10.6,10.5
			c6.1,0,10.4-4.8,10.4-10.5C106.5,83.4,101.9,78.9,96,78.9z"/>
		<path fill="#FFFFFF" d="M114.2,73.4v-3.8h1.2v3.8H114.2z M114.2,100.5V78.3h1.2v22.2H114.2z"/>
		<path fill="#FFFFFF" d="M132.3,110c-4.4,0-9-2.4-10.9-6.8h1.3c0.5,0.9,1.3,2.2,2.9,3.4c2,1.6,4.5,2.3,6.5,2.3
			c5.2,0,10.2-4.2,10.2-10.6V95h-0.1c-1.9,3.8-5.6,6.1-10.2,6.1c-7.4,0-11.8-5.6-11.8-11.6c0-6.1,4.5-11.6,11.8-11.6
			c5.4,0,9.2,3.3,10.3,6.2h0.1v-5.6h1.2V98C143.6,107.3,135.8,110,132.3,110z M132.1,78.9c-5.9,0-10.6,4.3-10.6,10.5
			c0,5,3.5,10.5,10.7,10.5c6.1,0,10.4-4.8,10.4-10.5C142.6,83.4,138,78.9,132.1,78.9z"/>
		<path fill="#FFFFFF" d="M150.1,73.4v-3.8h1.2v3.8H150.1z M150.1,100.5V78.3h1.2v22.2H150.1z"/>
		<path fill="#FFFFFF" d="M160.9,79.4v21.1h-1.2V79.4h-4.9v-1.1h4.9v-8.8h1.2v8.8h5.7v1.1H160.9z"/>
		<path fill="#FFFFFF" d="M190.7,100.5V95h-0.1c-1.9,3.8-5.6,6.1-10.3,6.1c-7.3,0-11.7-5.6-11.7-11.6c0-6.1,4.5-11.6,11.7-11.6
			c5.4,0,9.2,3.3,10.3,6.2h0.1v-5.6h1.2v22.2H190.7z M180.3,78.9c-5.8,0-10.5,4.3-10.5,10.5c0,5,3.5,10.5,10.6,10.5
			c6.1,0,10.4-4.8,10.4-10.5C190.8,83.4,186.2,78.9,180.3,78.9z"/>
		<path fill="#FFFFFF" d="M198.6,100.5v-31h1.2v31H198.6z"/>
	</g>
	<g>
		<path fill="#FFFFFF" d="M78.8,50.2V13.3c0-0.3,0.1-0.7,0.2-1c0.1-0.3,0.4-0.7,0.7-1c0.2-0.2,0.5-0.4,0.9-0.5
			c0.3-0.2,0.6-0.3,0.9-0.3h13.1c2,0,3.7,0.3,5.2,0.9c1.5,0.6,2.8,1.4,3.9,2.4c1.1,1,1.9,2.2,2.4,3.5c0.2,0.5,0.5,1.2,0.7,2.3
			c0.2,1,0.5,2.3,0.6,4c0.2,1.7,0.3,3.9,0.3,6.6c0,3-0.1,5.4-0.4,7.3c-0.2,1.9-0.5,3.4-0.9,4.5c-0.4,1.1-0.8,2-1.2,2.6
			c-0.5,0.8-1.2,1.6-2.1,2.5c-0.9,0.9-2.2,1.6-3.7,2.2c-1.5,0.6-3.3,0.9-5.5,0.9H78.8z M78.8,60.4h16.8c1.6,0,3.3-0.1,5.1-0.2
			c1.8-0.2,3.7-0.5,5.6-1c1.9-0.5,3.8-1.4,5.6-2.6c1.8-1.2,3.4-2.8,4.8-4.8c1.4-2.1,2.5-4.4,3.2-6.8c0.7-2.5,1.1-5.1,1.3-7.8
			c0.2-2.7,0.3-5.4,0.3-8.1c0-1.7,0-3.4-0.1-5.4c-0.1-1.9-0.3-3.9-0.7-5.9c-0.4-2-1-3.9-1.9-5.8c-0.9-1.9-2.1-3.6-3.6-5.2
			c-1.5-1.5-3-2.7-4.7-3.6c-1.6-0.9-3.3-1.5-4.9-2c-1.6-0.4-3.1-0.7-4.6-0.9c-1.4-0.1-2.6-0.2-3.6-0.2h-21c-1.2,0-2.4,0.1-3.7,0.3
			c-1.3,0.2-2.6,0.8-3.7,1.6c-0.5,0.4-1,0.9-1.5,1.5c-0.5,0.6-1,1.5-1.3,2.4c-0.3,1-0.5,2.1-0.5,3.4v70.1h6.4c5.2-0.1,7.1-2.1,6.9-9
			V60.4z M13.7,24.5c0-1.3,0.1-2.6,0.2-3.8c0.1-1.2,0.3-2.3,0.7-3.4c0.4-1.1,1-2.1,1.9-3.2c1.2-1.3,2.6-2.3,4.1-2.9
			c1.5-0.5,3-0.9,4.5-1c1.5-0.1,2.8-0.1,4-0.1c1.3,0,2.6,0,3.9,0.2c1.3,0.1,2.6,0.4,3.9,0.8c1.3,0.4,2.5,1,3.6,1.8
			c0.7,0.5,1.3,1.1,1.9,1.9c0.6,0.8,1.1,1.7,1.4,2.7c0.4,1,0.6,2.2,0.6,3.4c0,0.6,0,1.1-0.2,1.6c-0.1,0.5-0.4,1-0.8,1.3
			c-0.4,0.4-1.1,0.5-1.9,0.6H13.7z M56.1,60.4V50.2H26.7c-1.2,0-2.5-0.1-3.7-0.2c-1.2-0.2-2.4-0.5-3.6-0.9c-1.1-0.5-2.1-1.2-3-2.2
			c-0.9-0.9-1.5-2.2-1.9-3.8c-0.2-0.6-0.3-1.4-0.4-2.4c-0.1-0.9-0.2-1.9-0.3-3c-0.1-1-0.1-2-0.1-2.9h35c1.2,0,2.3-0.1,3.4-0.5
			c1.1-0.3,2.1-0.9,3-1.8c0.8-0.8,1.4-1.8,1.9-2.8c0.4-1,0.7-2.1,0.8-3.1c0.1-1.1,0.2-2.1,0.2-3.2c0-2.6-0.2-5-0.6-7.5
			c-0.4-2.4-1.3-4.7-2.5-6.7c-1.2-2.1-3-3.8-5.3-5.3c-1.9-1.2-3.9-2-6.1-2.6c-2.2-0.5-4.4-0.9-6.8-1.1C34.3,0.1,32,0,29.6,0
			c-1.4,0-3.1,0-5,0.1c-1.9,0.1-3.9,0.3-5.9,0.6c-2.1,0.3-4.1,0.9-6.1,1.7c-2,0.8-3.8,1.9-5.5,3.3c-1.6,1.4-2.9,3-3.9,4.7
			c-1,1.8-1.7,3.7-2.1,5.8c-0.5,2.1-0.8,4.3-0.9,6.8C0.1,25.4,0,28.1,0,30.9c0,2.7,0.1,5.3,0.2,7.9c0.2,2.6,0.6,5.1,1.2,7.5
			C2,48.7,3,50.9,4.3,52.8c1.2,1.7,2.6,3.1,4.1,4.2c1.5,1,3,1.8,4.6,2.3c1.6,0.5,3.2,0.8,4.9,1c1.6,0.2,3.2,0.2,4.7,0.2H56.1z
			 M142.2,54c0,4.6-2.3,6.4-6.9,6.4h-6.4V6.6c0-4.6,2.3-6.4,6.9-6.4h6.4V54z M202,60.4V50.2h-21.6c-1.9,0-3.8-0.1-5.7-0.4
			c-1.9-0.3-3.7-0.9-5.4-1.8c-1.6-0.9-3-2.3-4-4.2c-0.5-1.1-0.9-2.4-1.2-3.9c-0.3-1.5-0.5-3-0.6-4.5c-0.1-1.5-0.2-2.9-0.2-4.1
			c0-0.5,0-1.2,0-2.1c0-0.9,0.1-1.9,0.1-3.1c0.1-1.1,0.2-2.2,0.3-3.3c0.1-1.1,0.3-2,0.5-2.9c0.5-1.7,1.3-3.3,2.5-4.7
			c1.2-1.4,2.8-2.6,4.8-3.4c2-0.9,4.5-1.3,7.5-1.3h21.4V0.2h-25.8c-2.7,0-5.1,0.2-7.1,0.7c-2,0.4-3.8,1-5.2,1.6
			c-1.5,0.7-2.7,1.4-3.7,2.1c-1,0.7-1.8,1.4-2.4,2.1c-1.7,1.7-3,3.6-3.9,5.7c-0.9,2.1-1.6,4.2-2,6.4c-0.4,2.2-0.7,4.3-0.8,6.4
			c-0.1,2.1-0.1,4.1-0.1,5.9c0,2.8,0.1,5.6,0.3,8.2c0.2,2.6,0.7,5,1.5,7.3c0.8,2.3,2,4.4,3.6,6.4c1.4,1.6,2.9,2.9,4.5,3.9
			c1.6,1,3.2,1.7,4.8,2.2c1.6,0.5,3.2,0.9,4.7,1c1.5,0.2,2.8,0.3,4,0.2H202z"/>
	</g>
</g>
</svg>
