<?xml version="1.0" encoding="utf-8"?>
<!-- Generator: Adobe Illustrator 18.1.1, SVG Export Plug-In . SVG Version: 6.00 Build 0)  -->
<svg version="1.1" id="Layer_1" xmlns="http://www.w3.org/2000/svg" xmlns:xlink="http://www.w3.org/1999/xlink" x="0px" y="0px"
	 viewBox="0 0 362.5 148.2" enable-background="new 0 0 362.5 148.2" xml:space="preserve">
<g>
	<path fill="none" d="M73.6,49.1c1.1,0,2.2,0.1,3.2,0.2v-0.8V34c-1.1-0.1-2.1-0.2-3.2-0.2c-1.1,0-2.1,0.1-3.2,0.2v15.3
		C71.5,49.2,72.5,49.1,73.6,49.1z"/>
	<path fill="none" d="M48.6,74.1c0-1.3,0.1-2.5,0.3-3.7h-0.4h-15c-0.1,1.2-0.2,2.5-0.2,3.7c0,1.2,0.1,2.5,0.2,3.7h15.4
		C48.7,76.6,48.6,75.4,48.6,74.1z"/>
	<path fill="none" d="M98.7,74.1c0,1.3-0.1,2.5-0.3,3.7h0.4h15c0.1-1.2,0.2-2.5,0.2-3.7c0-1.2-0.1-2.5-0.2-3.7H98.4
		C98.5,71.6,98.7,72.9,98.7,74.1z"/>
	<path fill="none" d="M73.6,99.2c-1.1,0-2.2-0.1-3.2-0.2v0.8v14.5c1.1,0.1,2.1,0.2,3.2,0.2c1.1,0,2.1-0.1,3.2-0.2V98.9
		C75.8,99.1,74.7,99.2,73.6,99.2z"/>
	<path fill="#9661AF" d="M70.4,28.2v-1.8C70.4,11.9,58.5,0,44,0H0v15.7v6.3V44c0,14.5,11.9,26.4,26.4,26.4h1.3
		C29.6,47.8,47.8,29.8,70.4,28.2z"/>
	<path fill="#9661AF" d="M48.9,70.4c1.6-11,10.4-19.7,21.5-21.1V34c-19.5,1.5-35.1,17-36.9,36.4h15H48.9z"/>
	<path fill="#5B8EDC" d="M27.7,77.8h-1.3C11.9,77.8,0,89.7,0,104.2v44h15.7h6.3H44c14.5,0,26.4-11.9,26.4-26.4V120
		C47.7,118.5,29.6,100.4,27.7,77.8z"/>
	<path fill="#5B8EDC" d="M70.4,98.9c-11.1-1.4-19.9-10.1-21.5-21.1H33.5c1.8,19.4,17.4,34.9,36.9,36.4V99.8V98.9z"/>
	<path fill="#FFEB66" d="M76.8,49.3c11.1,1.4,19.9,10.1,21.5,21.1h15.4C111.9,51,96.3,35.5,76.8,34v14.5V49.3z"/>
	<path fill="#FFEB66" d="M119.5,70.4h1.3c14.5,0,26.4-11.9,26.4-26.4V0h-15.7h-6.3h-22.1C88.7,0,76.8,11.9,76.8,26.4v1.8
		C99.5,29.8,117.7,47.8,119.5,70.4z"/>
	<path fill="#80D7D4" d="M120.8,77.8h-1.3c-1.8,22.6-20,40.6-42.7,42.2v1.8c0,14.5,11.9,26.4,26.4,26.4h44v-15.7v-6.3v-22.1
		C147.2,89.7,135.4,77.8,120.8,77.8z"/>
	<path fill="#80D7D4" d="M98.8,77.8h-0.4c-1.6,11-10.4,19.7-21.5,21.1v15.3c19.5-1.5,35.1-17,36.9-36.4H98.8z"/>
	<g>
		<path fill="#FFFFFF" d="M119.5,77.8c0.1-1.2,0.2-2.5,0.2-3.7c0-1.2-0.1-2.5-0.2-3.7c-1.8-22.6-20-40.6-42.7-42.2
			c-1.1-0.1-2.1-0.1-3.2-0.1c-1.1,0-2.1,0.1-3.2,0.1c-22.7,1.6-40.9,19.6-42.7,42.2c-0.1,1.2-0.2,2.5-0.2,3.7c0,1.2,0.1,2.5,0.2,3.7
			c1.8,22.6,20,40.6,42.7,42.2c1.1,0.1,2.1,0.1,3.2,0.1c1.1,0,2.1-0.1,3.2-0.1C99.5,118.5,117.7,100.4,119.5,77.8z M76.8,114.3
			c-1.1,0.1-2.1,0.2-3.2,0.2c-1.1,0-2.1-0.1-3.2-0.2c-19.5-1.5-35.1-17-36.9-36.4c-0.1-1.2-0.2-2.5-0.2-3.7c0-1.3,0.1-2.5,0.2-3.7
			C35.3,51,50.9,35.5,70.4,34c1.1-0.1,2.1-0.2,3.2-0.2c1.1,0,2.1,0.1,3.2,0.2c19.5,1.5,35.1,17,36.9,36.4c0.1,1.2,0.2,2.5,0.2,3.7
			c0,1.3-0.1,2.5-0.2,3.7C111.9,97.3,96.3,112.7,76.8,114.3z"/>
		<path fill="#FFFFFF" d="M98.4,70.4c-1.6-11-10.4-19.7-21.5-21.1c-1.1-0.1-2.1-0.2-3.2-0.2c-1.1,0-2.2,0.1-3.2,0.2
			c-11.1,1.4-19.9,10.1-21.5,21.1c-0.2,1.2-0.3,2.4-0.3,3.7c0,1.3,0.1,2.5,0.3,3.7c1.6,11,10.4,19.7,21.5,21.1
			c1.1,0.1,2.1,0.2,3.2,0.2c1.1,0,2.2-0.1,3.2-0.2c11.1-1.4,19.9-10.1,21.5-21.1c0.2-1.2,0.3-2.4,0.3-3.7
			C98.7,72.9,98.5,71.6,98.4,70.4z"/>
	</g>
	<g>
		<path fill="#929496" d="M266.8,138.2v-5.5h-0.1c-1.9,3.8-5.6,6.1-10.3,6.1c-7.3,0-11.7-5.6-11.7-11.6c0-6.1,4.5-11.6,11.7-11.6
			c5.4,0,9.2,3.3,10.3,6.2h0.1v-14.4h1.2v31H266.8z M256.5,116.6c-5.8,0-10.5,4.3-10.5,10.5c0,5,3.5,10.5,10.6,10.5
			c6.1,0,10.4-4.8,10.4-10.5C267,121.1,262.4,116.6,256.5,116.6z"/>
		<path fill="#929496" d="M274.7,111.1v-3.8h1.2v3.8H274.7z M274.7,138.2v-22.2h1.2v22.2H274.7z"/>
		<path fill="#929496" d="M292.9,147.7c-4.4,0-9-2.4-10.9-6.8h1.3c0.5,0.9,1.3,2.2,2.9,3.4c2,1.6,4.5,2.3,6.5,2.3
			c5.2,0,10.2-4.2,10.2-10.6v-3.3h-0.1c-1.9,3.8-5.6,6.1-10.2,6.1c-7.4,0-11.8-5.6-11.8-11.6c0-6.1,4.5-11.6,11.8-11.6
			c5.4,0,9.2,3.3,10.3,6.2h0.1v-5.6h1.2v19.7C304.1,145,296.3,147.7,292.9,147.7z M292.6,116.6c-5.9,0-10.6,4.3-10.6,10.5
			c0,5,3.5,10.5,10.7,10.5c6.1,0,10.4-4.8,10.4-10.5C303.1,121.1,298.5,116.6,292.6,116.6z"/>
		<path fill="#929496" d="M310.6,111.1v-3.8h1.2v3.8H310.6z M310.6,138.2v-22.2h1.2v22.2H310.6z"/>
		<path fill="#929496" d="M321.4,117.1v21.1h-1.2v-21.1h-4.9v-1.1h4.9v-8.8h1.2v8.8h5.7v1.1H321.4z"/>
		<path fill="#929496" d="M351.2,138.2v-5.5h-0.1c-1.9,3.8-5.6,6.1-10.3,6.1c-7.3,0-11.7-5.6-11.7-11.6c0-6.1,4.5-11.6,11.7-11.6
			c5.4,0,9.2,3.3,10.3,6.2h0.1v-5.6h1.2v22.2H351.2z M340.8,116.6c-5.8,0-10.5,4.3-10.5,10.5c0,5,3.5,10.5,10.6,10.5
			c6.1,0,10.4-4.8,10.4-10.5C351.3,121.1,346.7,116.6,340.8,116.6z"/>
		<path fill="#929496" d="M359.1,138.2v-31h1.2v31H359.1z"/>
	</g>
	<g>
		<path fill="#929496" d="M239.3,87.9V51c0-0.3,0.1-0.7,0.2-1c0.1-0.3,0.4-0.7,0.7-1c0.2-0.2,0.5-0.4,0.9-0.5
			c0.3-0.2,0.6-0.3,0.9-0.3H255c2,0,3.7,0.3,5.2,0.9c1.5,0.6,2.8,1.4,3.9,2.4c1.1,1,1.9,2.2,2.4,3.5c0.2,0.5,0.5,1.2,0.7,2.3
			c0.2,1,0.5,2.3,0.6,4c0.2,1.7,0.3,3.9,0.3,6.6c0,3-0.1,5.4-0.4,7.3c-0.2,1.9-0.5,3.4-0.9,4.5c-0.4,1.1-0.8,2-1.2,2.6
			c-0.5,0.8-1.2,1.6-2.1,2.5c-0.9,0.9-2.2,1.6-3.7,2.2c-1.5,0.6-3.3,0.9-5.5,0.9H239.3z M239.3,98.1h16.8c1.6,0,3.3-0.1,5.1-0.2
			c1.8-0.2,3.7-0.5,5.6-1c1.9-0.5,3.8-1.4,5.6-2.6c1.8-1.2,3.4-2.8,4.8-4.8c1.4-2.1,2.5-4.4,3.2-6.8c0.7-2.5,1.1-5.1,1.3-7.8
			c0.2-2.7,0.3-5.4,0.3-8.1c0-1.7,0-3.4-0.1-5.4c-0.1-1.9-0.3-3.9-0.7-5.9c-0.4-2-1-3.9-1.9-5.8c-0.9-1.9-2.1-3.6-3.6-5.2
			c-1.5-1.5-3-2.7-4.7-3.6c-1.6-0.9-3.3-1.5-4.9-2c-1.6-0.4-3.1-0.7-4.6-0.9c-1.4-0.1-2.6-0.2-3.6-0.2h-21c-1.2,0-2.4,0.1-3.7,0.3
			c-1.3,0.2-2.6,0.8-3.7,1.6c-0.5,0.4-1,0.9-1.5,1.5c-0.5,0.6-1,1.5-1.3,2.4c-0.3,1-0.5,2.1-0.5,3.4v70.1h6.4c5.2-0.1,7.1-2.1,6.9-9
			V98.1z M174.2,62.2c0-1.3,0.1-2.6,0.2-3.8c0.1-1.2,0.3-2.3,0.7-3.4c0.4-1.1,1-2.1,1.9-3.2c1.2-1.3,2.6-2.3,4.1-2.9
			c1.5-0.5,3-0.9,4.5-1c1.5-0.1,2.8-0.1,4-0.1c1.3,0,2.6,0,3.9,0.2c1.3,0.1,2.6,0.4,3.9,0.8c1.3,0.4,2.5,1,3.6,1.8
			c0.7,0.5,1.3,1.1,1.9,1.9c0.6,0.8,1.1,1.7,1.4,2.7c0.4,1,0.6,2.2,0.6,3.4c0,0.6,0,1.1-0.2,1.6c-0.1,0.5-0.4,1-0.8,1.3
			c-0.4,0.4-1.1,0.5-1.9,0.6H174.2z M216.6,98.1V87.9h-29.4c-1.2,0-2.5-0.1-3.7-0.2c-1.2-0.2-2.4-0.5-3.6-0.9
			c-1.1-0.5-2.1-1.2-3-2.2c-0.9-0.9-1.5-2.2-1.9-3.8c-0.2-0.6-0.3-1.4-0.4-2.4c-0.1-0.9-0.2-1.9-0.3-3c-0.1-1-0.1-2-0.1-2.9h35
			c1.2,0,2.3-0.1,3.4-0.5c1.1-0.3,2.1-0.9,3-1.8c0.8-0.8,1.4-1.8,1.9-2.8c0.4-1,0.7-2.1,0.8-3.1c0.1-1.1,0.2-2.1,0.2-3.2
			c0-2.6-0.2-5-0.6-7.5c-0.4-2.4-1.3-4.7-2.5-6.7c-1.2-2.1-3-3.8-5.3-5.3c-1.9-1.2-3.9-2-6.1-2.6c-2.2-0.5-4.4-0.9-6.8-1.1
			c-2.3-0.2-4.7-0.2-7-0.2c-1.4,0-3.1,0-5,0.1c-1.9,0.1-3.9,0.3-5.9,0.6c-2.1,0.3-4.1,0.9-6.1,1.7c-2,0.8-3.8,1.9-5.5,3.3
			c-1.6,1.4-2.9,3-3.9,4.7c-1,1.8-1.7,3.7-2.1,5.8c-0.5,2.1-0.8,4.3-0.9,6.8c-0.1,2.5-0.2,5.1-0.2,7.9c0,2.7,0.1,5.3,0.2,7.9
			c0.2,2.6,0.6,5.1,1.2,7.5c0.6,2.4,1.6,4.5,2.9,6.4c1.2,1.7,2.6,3.1,4.1,4.2c1.5,1,3,1.8,4.6,2.3c1.6,0.5,3.2,0.8,4.9,1
			c1.6,0.2,3.2,0.2,4.7,0.2H216.6z M302.7,91.7c0,4.6-2.3,6.4-6.9,6.4h-6.4V44.3c0-4.6,2.3-6.4,6.9-6.4h6.4V91.7z M362.5,98.1V87.9
			H341c-1.9,0-3.8-0.1-5.7-0.4c-1.9-0.3-3.7-0.9-5.4-1.8c-1.6-0.9-3-2.3-4-4.2c-0.5-1.1-0.9-2.4-1.2-3.9c-0.3-1.5-0.5-3-0.6-4.5
			c-0.1-1.5-0.2-2.9-0.2-4.1c0-0.5,0-1.2,0-2.1c0-0.9,0.1-1.9,0.1-3.1c0.1-1.1,0.2-2.2,0.3-3.3c0.1-1.1,0.3-2,0.5-2.9
			c0.5-1.7,1.3-3.3,2.5-4.7c1.2-1.4,2.8-2.6,4.8-3.4c2-0.9,4.5-1.3,7.5-1.3h21.4V37.9h-25.8c-2.7,0-5.1,0.2-7.1,0.7
			c-2,0.4-3.8,1-5.2,1.6c-1.5,0.7-2.7,1.4-3.7,2.1c-1,0.7-1.8,1.4-2.4,2.1c-1.7,1.7-3,3.6-3.9,5.7c-0.9,2.1-1.6,4.2-2,6.4
			c-0.4,2.2-0.7,4.3-0.8,6.4c-0.1,2.1-0.1,4.1-0.1,5.9c0,2.8,0.1,5.6,0.3,8.2c0.2,2.6,0.7,5,1.5,7.3c0.8,2.3,2,4.4,3.6,6.4
			c1.4,1.6,2.9,2.9,4.5,3.9c1.6,1,3.2,1.7,4.8,2.2c1.6,0.5,3.2,0.9,4.7,1c1.5,0.2,2.8,0.3,4,0.2H362.5z"/>
	</g>
</g>
</svg>
